{
  "source": "C:\\Users\\Peter\\Desktop\\stuff\\MIUN\\quantitative_research\\video_compression\\videos\\BVI-HD\\BVI-HD_CDVL_videos\\ORIG\\RockWave_1920x1080_30fps.mp4",
  "output": "C:\\Users\\Peter\\Desktop\\stuff\\MIUN\\quantitative_research\\video_compression\\compressed_videos\\BVI-HD\\av1\\4\\RockWave_1920x1080_30fps_av1.mkv",
  "codec": "av1",
  "ok": "Input #0, mov,mp4,m4a,3gp,3g2,mj2, from 'C:\\Users\\Peter\\Desktop\\stuff\\MIUN\\quantitative_research\\video_compression\\videos\\BVI-HD\\BVI-HD_CDVL_videos\\ORIG\\RockWave_1920x1080_30fps.mp4':\n  Metadata:\n    major_brand     : isom\n    minor_version   : 512\n    compatible_brands: isomiso2avc1mp41\n    encoder         : Lavf54.28.101\n  Duration: 00:00:05.00, start: 0.000000, bitrate: 303557 kb/s\n  Stream #0:0[0x1](und): Video: h264 (High 4:4:4 Predictive) (avc1 / 0x31637661), yuv420p(progressive), 1920x1080, 303553 kb/s, 30 fps, 30 tbr, 30 tbn (default)\n    Metadata:\n      handler_name    : VideoHandler\n      vendor_id       : [0][0][0][0]\n[out#0/matroska @ 000001cd29319700] Codec AVOption b:a (set bitrate (in bits/s)) has not been used for any stream. The most likely reason is either wrong type (e.g. a video option with no video streams) or that it is a private option of some decoder which was not actually used for any stream.\nStream mapping:\n  Stream #0:0 -> #0:0 (h264 (native) -> av1 (libsvtav1))\nPress [q] to stop, [?] for help\nSvt[info]: -------------------------------------------\nSvt[info]: SVT [version]:\tSVT-AV1 Encoder Lib v3.1.0-19-g6ecfe8ec\nSvt[info]: SVT [build]  :\tGCC 15.2.0\t 64 bit\nSvt[info]: LIB Build date: Aug 17 2025 11:37:13\nSvt[info]: -------------------------------------------\nSvt[info]: Level of Parallelism: 5\nSvt[info]: Number of PPCS 93\nSvt[info]: [asm level on system : up to avx2]\nSvt[info]: [asm level selected : up to avx2]\nSvt[info]: -------------------------------------------\nSvt[info]: SVT [config]: main profile\ttier (auto)\tlevel (auto)\nSvt[info]: SVT [config]: width / height / fps numerator / fps denominator \t\t: 1920 / 1080 / 30 / 1\nSvt[info]: SVT [config]: bit-depth / color format \t\t\t\t\t: 8 / YUV420\nSvt[info]: SVT [config]: preset / tune / pred struct \t\t\t\t\t: 4 / PSNR / random access\nSvt[info]: SVT [config]: gop size / mini-gop size / key-frame type \t\t\t: 161 / 16 / key frame\nSvt[info]: SVT [config]: BRC mode / target bitrate (kbps)\t\t\t\t: VBR / 4000 \nSvt[info]: SVT [config]: AQ mode / Variance Boost \t\t\t\t\t: 2 / 0\nSvt[info]: SVT [config]: sharpness / luminance-based QP bias \t\t\t\t: 0 / 0\nSvt[info]: SVT [config]: QP scale compress strength \t\t\t\t\t: 0\nSvt[info]: -------------------------------------------\nOutput #0, matroska, to 'C:\\Users\\Peter\\Desktop\\stuff\\MIUN\\quantitative_research\\video_compression\\compressed_videos\\BVI-HD\\av1\\4\\RockWave_1920x1080_30fps_av1.mkv':\n  Metadata:\n    major_brand     : isom\n    minor_version   : 512\n    compatible_brands: isomiso2avc1mp41\n    encoder         : Lavf62.3.100\n  Stream #0:0(und): Video: av1 (AV01 / 0x31305641), yuv420p(tv, progressive), 1920x1080, q=2-31, 4000 kb/s, 30 fps, 1k tbn (default)\n    Metadata:\n      encoder         : Lavc62.11.100 libsvtav1\n      handler_name    : VideoHandler\n      vendor_id       : [0][0][0][0]\n    Side data:\n      cpb: bitrate max/min/avg: 0/0/4000000 buffer size: 4000000 vbv_delay: N/A\nframe=    0 fps=0.0 q=0.0 size=       0KiB time=N/A bitrate=N/A speed=N/A elapsed=0:00:01.60    \nframe=    0 fps=0.0 q=0.0 size=       0KiB time=N/A bitrate=N/A speed=N/A elapsed=0:00:02.12    \nframe=    0 fps=0.0 q=0.0 size=       0KiB time=N/A bitrate=N/A speed=N/A elapsed=0:00:02.73    \nframe=    0 fps=0.0 q=0.0 size=       0KiB time=N/A bitrate=N/A speed=N/A elapsed=0:00:03.42    \nframe=    0 fps=0.0 q=0.0 size=       0KiB time=N/A bitrate=N/A speed=N/A elapsed=0:00:04.11    \nframe=    0 fps=0.0 q=0.0 size=       0KiB time=N/A bitrate=N/A speed=N/A elapsed=0:00:04.68    \nframe=    0 fps=0.0 q=0.0 size=       0KiB time=N/A bitrate=N/A speed=N/A elapsed=0:00:05.24    \nframe=    1 fps=0.2 q=38.0 size=       1KiB time=00:00:00.00 bitrate=N/A speed=   0x elapsed=0:00:05.78    \nframe=    1 fps=0.2 q=38.0 size=       1KiB time=00:00:00.00 bitrate=N/A speed=   0x elapsed=0:00:06.43    \nframe=    1 fps=0.1 q=38.0 size=       1KiB time=00:00:00.00 bitrate=N/A speed=   0x elapsed=0:00:07.01    \nframe=    2 fps=0.3 q=52.0 size=       1KiB time=00:00:00.03 bitrate= 171.1kbits/s speed=0.00442x elapsed=0:00:07.54    \nframe=    4 fps=0.5 q=52.0 size=       1KiB time=00:00:00.10 bitrate=  57.0kbits/s speed=0.0122x elapsed=0:00:08.16    \nframe=    6 fps=0.7 q=54.0 size=       1KiB time=00:00:00.16 bitrate=  34.2kbits/s speed=0.0191x elapsed=0:00:08.73    \nframe=    7 fps=0.8 q=51.0 size=       1KiB time=00:00:00.20 bitrate=  28.5kbits/s speed=0.0215x elapsed=0:00:09.30    \nframe=   10 fps=1.0 q=54.0 size=       1KiB time=00:00:00.26 bitrate=  21.4kbits/s speed=0.0268x elapsed=0:00:09.94    \nframe=   12 fps=1.1 q=54.0 size=       1KiB time=00:00:00.36 bitrate=  15.6kbits/s speed=0.0349x elapsed=0:00:10.51    \nframe=   15 fps=1.4 q=51.0 size=       1KiB time=00:00:00.43 bitrate=  13.2kbits/s speed=0.0392x elapsed=0:00:11.05    \nframe=   18 fps=1.5 q=55.0 size=       1KiB time=00:00:00.53 bitrate=  10.7kbits/s speed=0.0455x elapsed=0:00:11.71    \nframe=   19 fps=1.5 q=52.0 size=       1KiB time=00:00:00.60 bitrate=   9.5kbits/s speed=0.0488x elapsed=0:00:12.30    \nframe=   22 fps=1.7 q=55.0 size=       1KiB time=00:00:00.66 bitrate=   8.6kbits/s speed=0.0519x elapsed=0:00:12.83    \nframe=   23 fps=1.7 q=52.0 size=       1KiB time=00:00:00.73 bitrate=   7.8kbits/s speed=0.0544x elapsed=0:00:13.47    \nframe=   26 fps=1.8 q=55.0 size=       1KiB time=00:00:00.80 bitrate=   7.1kbits/s speed=0.0566x elapsed=0:00:14.12    \nframe=   29 fps=2.0 q=49.0 size=       1KiB time=00:00:00.86 bitrate=   6.6kbits/s speed=0.0587x elapsed=0:00:14.75    \nframe=   32 fps=2.1 q=58.0 size=       1KiB time=00:00:01.03 bitrate=   5.5kbits/s speed=0.0673x elapsed=0:00:15.35    \nframe=   35 fps=2.2 q=55.0 size=       1KiB time=00:00:01.13 bitrate=   5.0kbits/s speed=0.0711x elapsed=0:00:15.93    \nframe=   37 fps=2.2 q=53.0 size=       1KiB time=00:00:01.20 bitrate=   4.8kbits/s speed=0.0728x elapsed=0:00:16.47    \nframe=   39 fps=2.3 q=55.0 size=       1KiB time=00:00:01.26 bitrate=   4.5kbits/s speed=0.0742x elapsed=0:00:17.07    \nframe=   42 fps=2.4 q=58.0 size=       1KiB time=00:00:01.36 bitrate=   4.2kbits/s speed=0.0774x elapsed=0:00:17.66    \nframe=   45 fps=2.5 q=52.0 size=       1KiB time=00:00:01.46 bitrate=   3.9kbits/s speed=0.0802x elapsed=0:00:18.28    \nframe=   49 fps=2.6 q=42.0 size=       1KiB time=00:00:01.56 bitrate=   3.6kbits/s speed=0.0832x elapsed=0:00:18.84    \nframe=   51 fps=2.6 q=56.0 size=       1KiB time=00:00:01.66 bitrate=   3.4kbits/s speed=0.0857x elapsed=0:00:19.45    \nframe=   57 fps=2.8 q=52.0 size=       1KiB time=00:00:01.86 bitrate=   3.1kbits/s speed=0.0933x elapsed=0:00:20.00    \nframe=   57 fps=2.8 q=52.0 size=       1KiB time=00:00:01.86 bitrate=   3.1kbits/s speed=0.0909x elapsed=0:00:20.54    \nframe=   59 fps=2.8 q=56.0 size=       1KiB time=00:00:01.93 bitrate=   3.0kbits/s speed=0.0917x elapsed=0:00:21.08    \nframe=   61 fps=2.8 q=53.0 size=       1KiB time=00:00:02.00 bitrate=   2.9kbits/s speed=0.0925x elapsed=0:00:21.62    \nframe=   65 fps=2.9 q=46.0 size=       1KiB time=00:00:02.13 bitrate=   2.7kbits/s speed=0.0963x elapsed=0:00:22.15    \nframe=   69 fps=3.0 q=54.0 size=       1KiB time=00:00:02.26 bitrate=   2.5kbits/s speed=0.0997x elapsed=0:00:22.72    \nframe=   73 fps=3.1 q=53.0 size=       1KiB time=00:00:02.40 bitrate=   2.4kbits/s speed=0.103x elapsed=0:00:23.29    \nframe=   73 fps=3.1 q=53.0 size=       1KiB time=00:00:02.40 bitrate=   2.4kbits/s speed=0.101x elapsed=0:00:23.81    \nframe=   77 fps=3.2 q=54.0 size=       1KiB time=00:00:02.53 bitrate=   2.3kbits/s speed=0.104x elapsed=0:00:24.39    \nframe=   79 fps=3.2 q=56.0 size=       1KiB time=00:00:02.60 bitrate=   2.2kbits/s speed=0.104x elapsed=0:00:24.94    \nframe=   83 fps=3.3 q=56.0 size=       1KiB time=00:00:02.73 bitrate=   2.1kbits/s speed=0.107x elapsed=0:00:25.48    \nframe=   87 fps=3.3 q=56.0 size=       1KiB time=00:00:02.86 bitrate=   2.0kbits/s speed=0.11x elapsed=0:00:26.05    \nframe=   89 fps=3.3 q=54.0 size=       1KiB time=00:00:02.93 bitrate=   1.9kbits/s speed=0.11x elapsed=0:00:26.63    \nframe=   91 fps=3.3 q=56.0 size=       1KiB time=00:00:03.00 bitrate=   1.9kbits/s speed=0.11x elapsed=0:00:27.16    \nframe=   93 fps=3.4 q=54.0 size=       1KiB time=00:00:03.06 bitrate=   1.9kbits/s speed=0.111x elapsed=0:00:27.68    \nframe=   99 fps=3.5 q=56.0 size=       1KiB time=00:00:03.20 bitrate=   1.8kbits/s speed=0.113x elapsed=0:00:28.20    \nframe=  103 fps=3.6 q=56.0 size=       1KiB time=00:00:03.40 bitrate=   1.7kbits/s speed=0.118x elapsed=0:00:28.78    \nframe=  105 fps=3.6 q=54.0 size=       1KiB time=00:00:03.46 bitrate=   1.6kbits/s speed=0.118x elapsed=0:00:29.37    \nframe=  109 fps=3.6 q=54.0 size=       1KiB time=00:00:03.60 bitrate=   1.6kbits/s speed=0.12x elapsed=0:00:29.96    \nframe=  113 fps=3.7 q=50.0 size=       1KiB time=00:00:03.73 bitrate=   1.5kbits/s speed=0.122x elapsed=0:00:30.54    \nframe=  117 fps=3.8 q=54.0 size=       1KiB time=00:00:03.86 bitrate=   1.5kbits/s speed=0.124x elapsed=0:00:31.08    \nframe=  121 fps=3.8 q=54.0 size=       1KiB time=00:00:04.00 bitrate=   1.4kbits/s speed=0.127x elapsed=0:00:31.60    \nframe=  121 fps=3.8 q=54.0 size=       1KiB time=00:00:04.00 bitrate=   1.4kbits/s speed=0.124x elapsed=0:00:32.15    \nframe=  125 fps=3.8 q=55.0 size=       1KiB time=00:00:04.13 bitrate=   1.4kbits/s speed=0.126x elapsed=0:00:32.68    \nframe=  129 fps=3.9 q=49.0 size=       1KiB time=00:00:04.26 bitrate=   1.3kbits/s speed=0.128x elapsed=0:00:33.27    \nframe=  133 fps=3.9 q=58.0 size=       1KiB time=00:00:04.40 bitrate=   1.3kbits/s speed=0.13x elapsed=0:00:33.80    \nframe=  137 fps=4.0 q=55.0 size=       1KiB time=00:00:04.53 bitrate=   1.3kbits/s speed=0.132x elapsed=0:00:34.39    \nframe=  141 fps=4.0 q=58.0 size=       1KiB time=00:00:04.66 bitrate=   1.2kbits/s speed=0.133x elapsed=0:00:35.00    \n[out#0/matroska @ 000001cd29319700] video:2659KiB audio:0KiB subtitle:0KiB other streams:0KiB global headers:0KiB muxing overhead: 0.054204%\nframe=  150 fps=4.2 q=58.0 Lsize=    2661KiB time=00:00:04.96 bitrate=4388.5kbits/s speed=0.14x elapsed=0:00:35.42    \n",
  "seconds": 36.16916036605835,
  "probe_out": {}
}